<svg width="122" height="122" viewBox="0 0 122 122" fill="none" xmlns="http://www.w3.org/2000/svg">
<g filter="url(#filter0_d_2_68)">
<rect x="6" y="4" width="110" height="110" rx="4" fill="white" shape-rendering="crispEdges"/>
<path d="M54.4305 43.0722C54.4305 44.1671 54.0473 45.0978 53.2809 45.8642C52.5144 46.6307 51.5838 47.0139 50.4889 47.0139C49.3939 47.0139 48.4633 46.6307 47.6968 45.8642C46.9304 45.0978 46.5472 44.1671 46.5472 43.0722C46.5472 41.9773 46.9304 41.0466 47.6968 40.2802C48.4633 39.5138 49.3939 39.1306 50.4889 39.1306C51.5838 39.1306 52.5144 39.5138 53.2809 40.2802C54.0473 41.0466 54.4305 41.9773 54.4305 43.0722ZM75.4528 50.9556V60.1528H46.5472V56.2111L53.1166 49.6417L56.4014 52.9264L66.9125 42.4153L75.4528 50.9556ZM77.4236 36.5028H44.5763C44.3984 36.5028 44.2445 36.5678 44.1144 36.6978C43.9844 36.8278 43.9194 36.9818 43.9194 37.1597V62.1236C43.9194 62.3015 43.9844 62.4555 44.1144 62.5855C44.2445 62.7155 44.3984 62.7806 44.5763 62.7806H77.4236C77.6015 62.7806 77.7555 62.7155 77.8855 62.5855C78.0155 62.4555 78.0805 62.3015 78.0805 62.1236V37.1597C78.0805 36.9818 78.0155 36.8278 77.8855 36.6978C77.7555 36.5678 77.6015 36.5028 77.4236 36.5028ZM80.7083 37.1597V62.1236C80.7083 63.0269 80.3867 63.8002 79.7434 64.4434C79.1002 65.0867 78.3269 65.4083 77.4236 65.4083H44.5763C43.6731 65.4083 42.8998 65.0867 42.2565 64.4434C41.6133 63.8002 41.2916 63.0269 41.2916 62.1236V37.1597C41.2916 36.2564 41.6133 35.4831 42.2565 34.8399C42.8998 34.1966 43.6731 33.875 44.5763 33.875H77.4236C78.3269 33.875 79.1002 34.1966 79.7434 34.8399C80.3867 35.4831 80.7083 36.2564 80.7083 37.1597Z" fill="#3A6B88"/>
<path d="M42.8487 79.3182V89.5H41.0043V79.3182H42.8487ZM44.7665 89.5V81.8636H46.4867V83.1612H46.5762C46.7353 82.7237 46.9988 82.3823 47.3667 82.1371C47.7346 81.8885 48.1737 81.7642 48.6841 81.7642C49.2012 81.7642 49.637 81.8902 49.9917 82.142C50.3496 82.3906 50.6015 82.7304 50.7473 83.1612H50.8269C50.9959 82.737 51.281 82.3989 51.682 82.147C52.0864 81.8918 52.5653 81.7642 53.1188 81.7642C53.8214 81.7642 54.3948 81.9863 54.839 82.4304C55.2831 82.8745 55.5051 83.5225 55.5051 84.3743V89.5H53.7005V84.6527C53.7005 84.1787 53.5745 83.8324 53.3226 83.6136C53.0707 83.3916 52.7625 83.2805 52.3979 83.2805C51.9637 83.2805 51.624 83.4164 51.3787 83.6882C51.1368 83.9567 51.0158 84.3063 51.0158 84.7372V89.5H49.2509V84.5781C49.2509 84.1837 49.1316 83.8688 48.8929 83.6335C48.6576 83.3982 48.3494 83.2805 47.9682 83.2805C47.7097 83.2805 47.4744 83.3468 47.2623 83.4794C47.0501 83.6087 46.8811 83.7926 46.7551 84.0312C46.6292 84.2666 46.5662 84.5417 46.5662 84.8565V89.5H44.7665ZM59.5284 89.6541C59.0445 89.6541 58.6087 89.5679 58.2209 89.3956C57.8364 89.2199 57.5315 88.9614 57.3061 88.62C57.084 88.2786 56.973 87.8577 56.973 87.3572C56.973 86.9264 57.0526 86.5701 57.2116 86.2884C57.3707 86.0066 57.5878 85.7812 57.8629 85.6122C58.138 85.4432 58.4479 85.3156 58.7926 85.2294C59.1406 85.1399 59.5002 85.0753 59.8714 85.0355C60.3189 84.9891 60.6818 84.9477 60.9602 84.9112C61.2386 84.8714 61.4408 84.8118 61.5668 84.7322C61.696 84.6494 61.7607 84.5218 61.7607 84.3494V84.3196C61.7607 83.9451 61.6496 83.6551 61.4276 83.4496C61.2055 83.2441 60.8857 83.1413 60.468 83.1413C60.0272 83.1413 59.6776 83.2375 59.419 83.4297C59.1638 83.6219 58.9915 83.849 58.902 84.1108L57.2216 83.8722C57.3542 83.4081 57.5729 83.0204 57.8778 82.7088C58.1828 82.3939 58.5556 82.1586 58.9964 82.0028C59.4373 81.8438 59.9245 81.7642 60.4581 81.7642C60.826 81.7642 61.1922 81.8073 61.5568 81.8935C61.9214 81.9796 62.2545 82.1222 62.5561 82.321C62.8577 82.5166 63.0997 82.7834 63.282 83.1214C63.4676 83.4595 63.5604 83.8821 63.5604 84.3892V89.5H61.8303V88.451H61.7706C61.6612 88.6631 61.5071 88.862 61.3082 89.0476C61.1127 89.2299 60.8658 89.3774 60.5675 89.4901C60.2725 89.5994 59.9261 89.6541 59.5284 89.6541ZM59.9957 88.3317C60.357 88.3317 60.6702 88.2604 60.9354 88.1179C61.2005 87.9721 61.4044 87.7798 61.5469 87.5412C61.6927 87.3026 61.7656 87.0424 61.7656 86.7607V85.8608C61.7093 85.9072 61.6132 85.9503 61.4773 85.9901C61.3447 86.0298 61.1955 86.0646 61.0298 86.0945C60.8641 86.1243 60.7 86.1508 60.5376 86.174C60.3752 86.1972 60.2344 86.2171 60.1151 86.2337C59.8466 86.2701 59.6063 86.3298 59.3942 86.4126C59.1821 86.4955 59.0147 86.6115 58.892 86.7607C58.7694 86.9065 58.7081 87.0954 58.7081 87.3274C58.7081 87.6589 58.8291 87.9091 59.071 88.0781C59.313 88.2472 59.6212 88.3317 59.9957 88.3317ZM68.6911 92.5227C68.0447 92.5227 67.4896 92.4349 67.0256 92.2592C66.5616 92.0869 66.1887 91.8549 65.907 91.5632C65.6252 91.2715 65.4297 90.9484 65.3203 90.5938L66.9411 90.201C67.014 90.3501 67.12 90.4976 67.2592 90.6435C67.3984 90.7926 67.5857 90.9152 67.821 91.0114C68.0597 91.1108 68.3596 91.1605 68.7209 91.1605C69.2313 91.1605 69.6539 91.0362 69.9886 90.7876C70.3234 90.5424 70.4908 90.138 70.4908 89.5746V88.1278H70.4013C70.3085 88.3134 70.1726 88.504 69.9936 88.6996C69.8179 88.8951 69.5843 89.0592 69.2926 89.1918C69.0043 89.3243 68.6413 89.3906 68.2038 89.3906C67.6172 89.3906 67.0852 89.2531 66.608 88.978C66.134 88.6996 65.7562 88.2853 65.4744 87.7351C65.196 87.1816 65.0568 86.4889 65.0568 85.657C65.0568 84.8184 65.196 84.1108 65.4744 83.5341C65.7562 82.9541 66.1357 82.5149 66.6129 82.2166C67.0902 81.915 67.6222 81.7642 68.2088 81.7642C68.6563 81.7642 69.0241 81.8404 69.3125 81.9929C69.6042 82.142 69.8362 82.3227 70.0085 82.5348C70.1809 82.7436 70.3118 82.9408 70.4013 83.1264H70.5007V81.8636H72.2756V89.6243C72.2756 90.2772 72.1198 90.8175 71.8082 91.245C71.4967 91.6726 71.0708 91.9924 70.5305 92.2045C69.9903 92.4167 69.3771 92.5227 68.6911 92.5227ZM68.706 87.9787C69.0871 87.9787 69.4119 87.8859 69.6804 87.7003C69.9489 87.5147 70.1527 87.2479 70.2919 86.8999C70.4311 86.5518 70.5007 86.1342 70.5007 85.647C70.5007 85.1664 70.4311 84.7455 70.2919 84.3842C70.156 84.023 69.9538 83.7429 69.6854 83.544C69.4202 83.3419 69.0938 83.2408 68.706 83.2408C68.3049 83.2408 67.9702 83.3452 67.7017 83.554C67.4332 83.7628 67.2311 84.0495 67.0952 84.4141C66.9593 84.7753 66.8913 85.1863 66.8913 85.647C66.8913 86.1143 66.9593 86.5237 67.0952 86.875C67.2344 87.223 67.4382 87.4948 67.7067 87.6903C67.9785 87.8826 68.3116 87.9787 68.706 87.9787ZM77.5007 89.6491C76.7351 89.6491 76.0739 89.4901 75.517 89.1719C74.9635 88.8504 74.5376 88.3963 74.2393 87.8097C73.9411 87.2197 73.7919 86.5253 73.7919 85.7266C73.7919 84.9411 73.9411 84.2517 74.2393 83.6584C74.541 83.0618 74.9619 82.5978 75.5021 82.2663C76.0424 81.9316 76.6771 81.7642 77.4062 81.7642C77.8769 81.7642 78.321 81.8404 78.7386 81.9929C79.1596 82.142 79.5308 82.3741 79.8523 82.6889C80.1771 83.0038 80.4323 83.4048 80.6179 83.892C80.8035 84.3759 80.8963 84.9527 80.8963 85.6222V86.174H74.6371V84.9609H79.1712C79.1679 84.6162 79.0933 84.3097 78.9474 84.0412C78.8016 83.7694 78.5978 83.5556 78.3359 83.3999C78.0774 83.2441 77.7758 83.1662 77.4311 83.1662C77.0632 83.1662 76.7401 83.2557 76.4616 83.4347C76.1832 83.6103 75.9661 83.8423 75.8104 84.1307C75.6579 84.4157 75.58 84.7289 75.5767 85.0703V86.1293C75.5767 86.5734 75.6579 86.9545 75.8203 87.2727C75.9827 87.5876 76.2098 87.8295 76.5014 87.9986C76.7931 88.1643 77.1345 88.2472 77.5256 88.2472C77.7874 88.2472 78.0244 88.2107 78.2365 88.1378C78.4486 88.0616 78.6326 87.9505 78.7884 87.8047C78.9441 87.6589 79.0618 87.4782 79.1413 87.2628L80.8217 87.4517C80.7157 87.8958 80.5135 88.2836 80.2152 88.6151C79.9202 88.9432 79.5424 89.1984 79.0817 89.3807C78.621 89.5597 78.094 89.6491 77.5007 89.6491Z" fill="#3A6B88"/>
<rect x="6.5" y="4.5" width="109" height="109" rx="3.5" stroke="#E9E9E9" shape-rendering="crispEdges"/>
</g>
<defs>
<filter id="filter0_d_2_68" x="0" y="0" width="122" height="122" filterUnits="userSpaceOnUse" color-interpolation-filters="sRGB">
<feFlood flood-opacity="0" result="BackgroundImageFix"/>
<feColorMatrix in="SourceAlpha" type="matrix" values="0 0 0 0 0 0 0 0 0 0 0 0 0 0 0 0 0 0 127 0" result="hardAlpha"/>
<feOffset dy="2"/>
<feGaussianBlur stdDeviation="3"/>
<feComposite in2="hardAlpha" operator="out"/>
<feColorMatrix type="matrix" values="0 0 0 0 0 0 0 0 0 0 0 0 0 0 0 0 0 0 0.13 0"/>
<feBlend mode="normal" in2="BackgroundImageFix" result="effect1_dropShadow_2_68"/>
<feBlend mode="normal" in="SourceGraphic" in2="effect1_dropShadow_2_68" result="shape"/>
</filter>
</defs>
</svg>
