<svg width="122" height="122" viewBox="0 0 122 122" fill="none" xmlns="http://www.w3.org/2000/svg">
<g filter="url(#filter0_d_2_63)">
<rect x="6" y="4" width="110" height="110" rx="4" fill="white" shape-rendering="crispEdges"/>
<path d="M54.109 62.5417V58.407C54.109 58.2061 54.0444 58.041 53.9152 57.9118C53.786 57.7825 53.6209 57.7179 53.4199 57.7179H46.5289C46.3279 57.7179 46.1628 57.7825 46.0336 57.9118C45.9044 58.041 45.8398 58.2061 45.8398 58.407V62.5417C45.8398 62.7426 45.9044 62.9077 46.0336 63.037C46.1628 63.1662 46.3279 63.2308 46.5289 63.2308H53.4199C53.6209 63.2308 53.786 63.1662 53.9152 63.037C54.0444 62.9077 54.109 62.7426 54.109 62.5417ZM54.109 54.2724V50.1378C54.109 49.9368 54.0444 49.7717 53.9152 49.6425C53.786 49.5133 53.6209 49.4487 53.4199 49.4487H46.5289C46.3279 49.4487 46.1628 49.5133 46.0336 49.6425C45.9044 49.7717 45.8398 49.9368 45.8398 50.1378V54.2724C45.8398 54.4734 45.9044 54.6385 46.0336 54.7677C46.1628 54.8969 46.3279 54.9615 46.5289 54.9615H53.4199C53.6209 54.9615 53.786 54.8969 53.9152 54.7677C54.0444 54.6385 54.109 54.4734 54.109 54.2724ZM65.1347 62.5417V58.407C65.1347 58.2061 65.0701 58.041 64.9408 57.9118C64.8116 57.7825 64.6465 57.7179 64.4456 57.7179H57.5545C57.3535 57.7179 57.1884 57.7825 57.0592 57.9118C56.93 58.041 56.8654 58.2061 56.8654 58.407V62.5417C56.8654 62.7426 56.93 62.9077 57.0592 63.037C57.1884 63.1662 57.3535 63.2308 57.5545 63.2308H64.4456C64.6465 63.2308 64.8116 63.1662 64.9408 63.037C65.0701 62.9077 65.1347 62.7426 65.1347 62.5417ZM54.109 46.0032V41.8686C54.109 41.6676 54.0444 41.5025 53.9152 41.3733C53.786 41.2441 53.6209 41.1795 53.4199 41.1795H46.5289C46.3279 41.1795 46.1628 41.2441 46.0336 41.3733C45.9044 41.5025 45.8398 41.6676 45.8398 41.8686V46.0032C45.8398 46.2042 45.9044 46.3693 46.0336 46.4985C46.1628 46.6277 46.3279 46.6923 46.5289 46.6923H53.4199C53.6209 46.6923 53.786 46.6277 53.9152 46.4985C54.0444 46.3693 54.109 46.2042 54.109 46.0032ZM65.1347 54.2724V50.1378C65.1347 49.9368 65.0701 49.7717 64.9408 49.6425C64.8116 49.5133 64.6465 49.4487 64.4456 49.4487H57.5545C57.3535 49.4487 57.1884 49.5133 57.0592 49.6425C56.93 49.7717 56.8654 49.9368 56.8654 50.1378V54.2724C56.8654 54.4734 56.93 54.6385 57.0592 54.7677C57.1884 54.8969 57.3535 54.9615 57.5545 54.9615H64.4456C64.6465 54.9615 64.8116 54.8969 64.9408 54.7677C65.0701 54.6385 65.1347 54.4734 65.1347 54.2724ZM76.1603 62.5417V58.407C76.1603 58.2061 76.0957 58.041 75.9665 57.9118C75.8373 57.7825 75.6722 57.7179 75.4712 57.7179H68.5802C68.3792 57.7179 68.2141 57.7825 68.0849 57.9118C67.9557 58.041 67.8911 58.2061 67.8911 58.407V62.5417C67.8911 62.7426 67.9557 62.9077 68.0849 63.037C68.2141 63.1662 68.3792 63.2308 68.5802 63.2308H75.4712C75.6722 63.2308 75.8373 63.1662 75.9665 63.037C76.0957 62.9077 76.1603 62.7426 76.1603 62.5417ZM65.1347 46.0032V41.8686C65.1347 41.6676 65.0701 41.5025 64.9408 41.3733C64.8116 41.2441 64.6465 41.1795 64.4456 41.1795H57.5545C57.3535 41.1795 57.1884 41.2441 57.0592 41.3733C56.93 41.5025 56.8654 41.6676 56.8654 41.8686V46.0032C56.8654 46.2042 56.93 46.3693 57.0592 46.4985C57.1884 46.6277 57.3535 46.6923 57.5545 46.6923H64.4456C64.6465 46.6923 64.8116 46.6277 64.9408 46.4985C65.0701 46.3693 65.1347 46.2042 65.1347 46.0032ZM76.1603 54.2724V50.1378C76.1603 49.9368 76.0957 49.7717 75.9665 49.6425C75.8373 49.5133 75.6722 49.4487 75.4712 49.4487H68.5802C68.3792 49.4487 68.2141 49.5133 68.0849 49.6425C67.9557 49.7717 67.8911 49.9368 67.8911 50.1378V54.2724C67.8911 54.4734 67.9557 54.6385 68.0849 54.7677C68.2141 54.8969 68.3792 54.9615 68.5802 54.9615H75.4712C75.6722 54.9615 75.8373 54.8969 75.9665 54.7677C76.0957 54.6385 76.1603 54.4734 76.1603 54.2724ZM76.1603 46.0032V41.8686C76.1603 41.6676 76.0957 41.5025 75.9665 41.3733C75.8373 41.2441 75.6722 41.1795 75.4712 41.1795H68.5802C68.3792 41.1795 68.2141 41.2441 68.0849 41.3733C67.9557 41.5025 67.8911 41.6676 67.8911 41.8686V46.0032C67.8911 46.2042 67.9557 46.3693 68.0849 46.4985C68.2141 46.6277 68.3792 46.6923 68.5802 46.6923H75.4712C75.6722 46.6923 75.8373 46.6277 75.9665 46.4985C76.0957 46.3693 76.1603 46.2042 76.1603 46.0032ZM78.9167 39.1122V62.5417C78.9167 63.4892 78.5793 64.3003 77.9046 64.9751C77.2298 65.6498 76.4187 65.9872 75.4712 65.9872H46.5289C45.5814 65.9872 44.7702 65.6498 44.0955 64.9751C43.4207 64.3003 43.0834 63.4892 43.0834 62.5417V39.1122C43.0834 38.1647 43.4207 37.3535 44.0955 36.6788C44.7702 36.004 45.5814 35.6667 46.5289 35.6667H75.4712C76.4187 35.6667 77.2298 36.004 77.9046 36.6788C78.5793 37.3535 78.9167 38.1647 78.9167 39.1122Z" fill="#3A6B88"/>
<path d="M42.5568 80.8643V79.3182H50.6804V80.8643H47.5334V89.5H45.7038V80.8643H42.5568ZM53.3253 89.6541C52.8414 89.6541 52.4055 89.5679 52.0178 89.3956C51.6333 89.2199 51.3284 88.9614 51.103 88.62C50.8809 88.2786 50.7699 87.8577 50.7699 87.3572C50.7699 86.9264 50.8494 86.5701 51.0085 86.2884C51.1676 86.0066 51.3847 85.7812 51.6598 85.6122C51.9349 85.4432 52.2448 85.3156 52.5895 85.2294C52.9375 85.1399 53.2971 85.0753 53.6683 85.0355C54.1158 84.9891 54.4787 84.9477 54.7571 84.9112C55.0355 84.8714 55.2377 84.8118 55.3636 84.7322C55.4929 84.6494 55.5575 84.5218 55.5575 84.3494V84.3196C55.5575 83.9451 55.4465 83.6551 55.2244 83.4496C55.0024 83.2441 54.6825 83.1413 54.2649 83.1413C53.8241 83.1413 53.4744 83.2375 53.2159 83.4297C52.9607 83.6219 52.7884 83.849 52.6989 84.1108L51.0185 83.8722C51.151 83.4081 51.3698 83.0204 51.6747 82.7088C51.9796 82.3939 52.3525 82.1586 52.7933 82.0028C53.2341 81.8438 53.7214 81.7642 54.255 81.7642C54.6229 81.7642 54.9891 81.8073 55.3537 81.8935C55.7183 81.9796 56.0514 82.1222 56.353 82.321C56.6546 82.5166 56.8965 82.7834 57.0788 83.1214C57.2644 83.4595 57.3572 83.8821 57.3572 84.3892V89.5H55.6271V88.451H55.5675C55.4581 88.6631 55.304 88.862 55.1051 89.0476C54.9096 89.2299 54.6626 89.3774 54.3643 89.4901C54.0694 89.5994 53.723 89.6541 53.3253 89.6541ZM53.7926 88.3317C54.1539 88.3317 54.4671 88.2604 54.7322 88.1179C54.9974 87.9721 55.2012 87.7798 55.3438 87.5412C55.4896 87.3026 55.5625 87.0424 55.5625 86.7607V85.8608C55.5062 85.9072 55.41 85.9503 55.2741 85.9901C55.1416 86.0298 54.9924 86.0646 54.8267 86.0945C54.661 86.1243 54.4969 86.1508 54.3345 86.174C54.1721 86.1972 54.0313 86.2171 53.9119 86.2337C53.6435 86.2701 53.4032 86.3298 53.1911 86.4126C52.9789 86.4955 52.8116 86.6115 52.6889 86.7607C52.5663 86.9065 52.505 87.0954 52.505 87.3274C52.505 87.6589 52.6259 87.9091 52.8679 88.0781C53.1098 88.2472 53.4181 88.3317 53.7926 88.3317ZM59.2464 89.5V79.3182H61.0462V83.1264H61.1207C61.2135 82.9408 61.3445 82.7436 61.5135 82.5348C61.6825 82.3227 61.9112 82.142 62.1996 81.9929C62.4879 81.8404 62.8558 81.7642 63.3033 81.7642C63.8932 81.7642 64.4252 81.915 64.8991 82.2166C65.3764 82.5149 65.7543 82.9574 66.0327 83.544C66.3144 84.1274 66.4553 84.8433 66.4553 85.6918C66.4553 86.5303 66.3177 87.2429 66.0426 87.8295C65.7675 88.4162 65.393 88.8636 64.919 89.1719C64.4451 89.4801 63.9081 89.6342 63.3082 89.6342C62.8707 89.6342 62.5078 89.5613 62.2195 89.4155C61.9311 89.2696 61.6991 89.094 61.5234 88.8885C61.3511 88.6797 61.2169 88.4825 61.1207 88.2969H61.0163V89.5H59.2464ZM61.0114 85.6818C61.0114 86.1757 61.081 86.6082 61.2202 86.9794C61.3627 87.3506 61.5665 87.6406 61.8317 87.8494C62.1001 88.0549 62.425 88.1577 62.8061 88.1577C63.2038 88.1577 63.5369 88.0516 63.8054 87.8395C64.0739 87.6241 64.276 87.3307 64.4119 86.9595C64.5511 86.585 64.6207 86.1591 64.6207 85.6818C64.6207 85.2079 64.5528 84.7869 64.4169 84.419C64.281 84.0511 64.0788 83.7628 63.8104 83.554C63.5419 83.3452 63.2071 83.2408 62.8061 83.2408C62.4216 83.2408 62.0952 83.3419 61.8267 83.544C61.5582 83.7462 61.3544 84.0296 61.2152 84.3942C61.0793 84.7588 61.0114 85.188 61.0114 85.6818ZM69.785 79.3182V89.5H67.9853V79.3182H69.785ZM75.0163 89.6491C74.2507 89.6491 73.5895 89.4901 73.0327 89.1719C72.4792 88.8504 72.0533 88.3963 71.755 87.8097C71.4567 87.2197 71.3075 86.5253 71.3075 85.7266C71.3075 84.9411 71.4567 84.2517 71.755 83.6584C72.0566 83.0618 72.4775 82.5978 73.0178 82.2663C73.558 81.9316 74.1927 81.7642 74.9219 81.7642C75.3925 81.7642 75.8366 81.8404 76.2543 81.9929C76.6752 82.142 77.0464 82.3741 77.3679 82.6889C77.6927 83.0038 77.9479 83.4048 78.1335 83.892C78.3191 84.3759 78.4119 84.9527 78.4119 85.6222V86.174H72.1527V84.9609H76.6868C76.6835 84.6162 76.6089 84.3097 76.4631 84.0412C76.3172 83.7694 76.1134 83.5556 75.8516 83.3999C75.593 83.2441 75.2914 83.1662 74.9467 83.1662C74.5788 83.1662 74.2557 83.2557 73.9773 83.4347C73.6989 83.6103 73.4818 83.8423 73.326 84.1307C73.1735 84.4157 73.0956 84.7289 73.0923 85.0703V86.1293C73.0923 86.5734 73.1735 86.9545 73.3359 87.2727C73.4983 87.5876 73.7254 87.8295 74.017 87.9986C74.3087 88.1643 74.6501 88.2472 75.0412 88.2472C75.303 88.2472 75.54 88.2107 75.7521 88.1378C75.9643 88.0616 76.1482 87.9505 76.304 87.8047C76.4598 87.6589 76.5774 87.4782 76.657 87.2628L78.3374 87.4517C78.2313 87.8958 78.0291 88.2836 77.7308 88.6151C77.4358 88.9432 77.058 89.1984 76.5973 89.3807C76.1366 89.5597 75.6096 89.6491 75.0163 89.6491Z" fill="#3A6B88"/>
<rect x="6.5" y="4.5" width="109" height="109" rx="3.5" stroke="#E9E9E9" shape-rendering="crispEdges"/>
</g>
<defs>
<filter id="filter0_d_2_63" x="0" y="0" width="122" height="122" filterUnits="userSpaceOnUse" color-interpolation-filters="sRGB">
<feFlood flood-opacity="0" result="BackgroundImageFix"/>
<feColorMatrix in="SourceAlpha" type="matrix" values="0 0 0 0 0 0 0 0 0 0 0 0 0 0 0 0 0 0 127 0" result="hardAlpha"/>
<feOffset dy="2"/>
<feGaussianBlur stdDeviation="3"/>
<feComposite in2="hardAlpha" operator="out"/>
<feColorMatrix type="matrix" values="0 0 0 0 0 0 0 0 0 0 0 0 0 0 0 0 0 0 0.13 0"/>
<feBlend mode="normal" in2="BackgroundImageFix" result="effect1_dropShadow_2_63"/>
<feBlend mode="normal" in="SourceGraphic" in2="effect1_dropShadow_2_63" result="shape"/>
</filter>
</defs>
</svg>
