<svg width="122" height="122" viewBox="0 0 122 122" fill="none" xmlns="http://www.w3.org/2000/svg">
<g filter="url(#filter0_d_2_73)">
<rect x="6" y="4" width="110" height="110" rx="4" fill="white" shape-rendering="crispEdges"/>
<path d="M77.125 59.6009V61.9317C77.125 62.2473 77.011 62.5205 76.7831 62.7511C76.5551 62.9818 76.2852 63.0971 75.9732 63.0971H46.0268C45.7148 63.0971 45.4449 62.9818 45.2169 62.7511C44.989 62.5205 44.875 62.2473 44.875 61.9317V59.6009C44.875 59.2853 44.989 59.0121 45.2169 58.7815C45.4449 58.5508 45.7148 58.4355 46.0268 58.4355H75.9732C76.2852 58.4355 76.5551 58.5508 76.7831 58.7815C77.011 59.0121 77.125 59.2853 77.125 59.6009ZM77.125 52.6085V54.9393C77.125 55.2549 77.011 55.5281 76.7831 55.7587C76.5551 55.9894 76.2852 56.1047 75.9732 56.1047H46.0268C45.7148 56.1047 45.4449 55.9894 45.2169 55.7587C44.989 55.5281 44.875 55.2549 44.875 54.9393V52.6085C44.875 52.2929 44.989 52.0197 45.2169 51.7891C45.4449 51.5584 45.7148 51.4431 46.0268 51.4431H75.9732C76.2852 51.4431 76.5551 51.5584 76.7831 51.7891C77.011 52.0197 77.125 52.2929 77.125 52.6085ZM77.125 45.6161V47.9469C77.125 48.2626 77.011 48.5357 76.7831 48.7663C76.5551 48.997 76.2852 49.1123 75.9732 49.1123H46.0268C45.7148 49.1123 45.4449 48.997 45.2169 48.7663C44.989 48.5357 44.875 48.2626 44.875 47.9469V45.6161C44.875 45.3005 44.989 45.0274 45.2169 44.7967C45.4449 44.5661 45.7148 44.4507 46.0268 44.4507H75.9732C76.2852 44.4507 76.5551 44.5661 76.7831 44.7967C77.011 45.0274 77.125 45.3005 77.125 45.6161ZM77.125 38.6237V40.9545C77.125 41.2702 77.011 41.5433 76.7831 41.774C76.5551 42.0046 76.2852 42.1199 75.9732 42.1199H46.0268C45.7148 42.1199 45.4449 42.0046 45.2169 41.774C44.989 41.5433 44.875 41.2702 44.875 40.9545V38.6237C44.875 38.3081 44.989 38.035 45.2169 37.8043C45.4449 37.5737 45.7148 37.4583 46.0268 37.4583H75.9732C76.2852 37.4583 76.5551 37.5737 76.7831 37.8043C77.011 38.035 77.125 38.3081 77.125 38.6237Z" fill="#3A6B88"/>
<path d="M46.5568 80.8643V79.3182H54.6804V80.8643H51.5334V89.5H49.7038V80.8643H46.5568ZM58.4402 89.6491C57.6745 89.6491 57.0133 89.4901 56.4565 89.1719C55.903 88.8504 55.4771 88.3963 55.1788 87.8097C54.8805 87.2197 54.7314 86.5253 54.7314 85.7266C54.7314 84.9411 54.8805 84.2517 55.1788 83.6584C55.4804 83.0618 55.9013 82.5978 56.4416 82.2663C56.9818 81.9316 57.6165 81.7642 58.3457 81.7642C58.8163 81.7642 59.2605 81.8404 59.6781 81.9929C60.099 82.142 60.4702 82.3741 60.7917 82.6889C61.1165 83.0038 61.3717 83.4048 61.5574 83.892C61.743 84.3759 61.8358 84.9527 61.8358 85.6222V86.174H55.5765V84.9609H60.1106C60.1073 84.6162 60.0327 84.3097 59.8869 84.0412C59.7411 83.7694 59.5372 83.5556 59.2754 83.3999C59.0169 83.2441 58.7153 83.1662 58.3706 83.1662C58.0027 83.1662 57.6795 83.2557 57.4011 83.4347C57.1227 83.6103 56.9056 83.8423 56.7498 84.1307C56.5974 84.4157 56.5195 84.7289 56.5162 85.0703V86.1293C56.5162 86.5734 56.5974 86.9545 56.7598 87.2727C56.9222 87.5876 57.1492 87.8295 57.4409 87.9986C57.7325 88.1643 58.0739 88.2472 58.465 88.2472C58.7269 88.2472 58.9638 88.2107 59.176 88.1378C59.3881 88.0616 59.572 87.9505 59.7278 87.8047C59.8836 87.6589 60.0012 87.4782 60.0808 87.2628L61.7612 87.4517C61.6551 87.8958 61.4529 88.2836 61.1547 88.6151C60.8597 88.9432 60.4818 89.1984 60.0211 89.3807C59.5604 89.5597 59.0334 89.6491 58.4402 89.6491ZM64.6658 81.8636L66.207 84.6825L67.7731 81.8636H69.6772L67.3754 85.6818L69.717 89.5H67.8228L66.207 86.7507L64.6062 89.5H62.6971L65.0238 85.6818L62.7567 81.8636H64.6658ZM74.8825 81.8636V83.2557H70.4925V81.8636H74.8825ZM71.5763 80.0341H73.3761V87.2031C73.3761 87.4451 73.4125 87.6307 73.4854 87.7599C73.5617 87.8859 73.6611 87.9721 73.7837 88.0185C73.9064 88.0649 74.0423 88.0881 74.1914 88.0881C74.3041 88.0881 74.4068 88.0798 74.4996 88.0632C74.5958 88.0466 74.6687 88.0317 74.7184 88.0185L75.0217 89.4254C74.9255 89.4586 74.788 89.495 74.609 89.5348C74.4334 89.5746 74.2179 89.5978 73.9627 89.6044C73.512 89.6177 73.1059 89.5497 72.7447 89.4006C72.3834 89.2481 72.0967 89.0128 71.8846 88.6946C71.6758 88.3764 71.573 87.9787 71.5763 87.5014V80.0341Z" fill="#3A6B88"/>
<rect x="6.5" y="4.5" width="109" height="109" rx="3.5" stroke="#E9E9E9" shape-rendering="crispEdges"/>
</g>
<defs>
<filter id="filter0_d_2_73" x="0" y="0" width="122" height="122" filterUnits="userSpaceOnUse" color-interpolation-filters="sRGB">
<feFlood flood-opacity="0" result="BackgroundImageFix"/>
<feColorMatrix in="SourceAlpha" type="matrix" values="0 0 0 0 0 0 0 0 0 0 0 0 0 0 0 0 0 0 127 0" result="hardAlpha"/>
<feOffset dy="2"/>
<feGaussianBlur stdDeviation="3"/>
<feComposite in2="hardAlpha" operator="out"/>
<feColorMatrix type="matrix" values="0 0 0 0 0 0 0 0 0 0 0 0 0 0 0 0 0 0 0.13 0"/>
<feBlend mode="normal" in2="BackgroundImageFix" result="effect1_dropShadow_2_73"/>
<feBlend mode="normal" in="SourceGraphic" in2="effect1_dropShadow_2_73" result="shape"/>
</filter>
</defs>
</svg>
